<svg xmlns="http://www.w3.org/2000/svg" width="38.325" height="38.325" viewBox="0 0 38.325 38.325">
  <g id="quokka" transform="translate(-1009 -676)">
    <circle id="Ellipse_43" data-name="Ellipse 43" cx="18.162" cy="18.162" r="18.162" transform="translate(1010 677)" fill="#edff0f" stroke="#073558" stroke-miterlimit="10" stroke-width="2"/>
    <g id="Group_412" data-name="Group 412" transform="translate(1016.243 680.812)">
      <path id="Path_739" data-name="Path 739" d="M1525.793,690.811a3.891,3.891,0,0,1-.612-.049,6.022,6.022,0,0,1-.718-.19.333.333,0,0,1-.111-.063.645.645,0,0,0-.174-.108.308.308,0,0,1-.068-.039,3.688,3.688,0,0,0-.479-.3,5.925,5.925,0,0,1-1.106-.656,5.765,5.765,0,0,0-.945-.537.351.351,0,0,1-.051-.029.063.063,0,0,0-.034-.011.328.328,0,0,1-.192-.069.509.509,0,0,0-.2-.095.318.318,0,0,1-.051-.016l-1.447-.6c-.089-.037-.177-.074-.264-.117a2.581,2.581,0,0,0-.731-.249,3,3,0,0,1-1.427-.71l-.022-.021a.6.6,0,0,0-.152-.118.331.331,0,0,1-.094-.062h0a.329.329,0,0,1-.15-.169.607.607,0,0,0-.141-.215.528.528,0,0,1-.222-.2c-.038-.049-.085-.111-.137-.167l-.066-.078-.061-.042a.341.341,0,0,1-.078-.08l-.093-.135-.012-.02-.107-.182a10.3,10.3,0,0,1-1.322-2.566,6.133,6.133,0,0,1-.278-2.477c.032-.352.083-.7.15-1.049l-.016-.008a.418.418,0,0,1-.2-.267l.006.013a.33.33,0,0,1-.022-.2,6.534,6.534,0,0,1,1.749-3.525,3.777,3.777,0,0,0,.65-.847,1.492,1.492,0,0,0,.117-.237l.091-.261c.106-.3.215-.613.3-.92a.262.262,0,0,0,.008-.13,12.642,12.642,0,0,1-.2-3.225.292.292,0,0,1,.005-.04.185.185,0,0,0,0-.059,2.4,2.4,0,0,1-.078-1.067,9.585,9.585,0,0,1,.511-2.472.311.311,0,0,1,.016-.038,1.618,1.618,0,0,0,.071-.165.327.327,0,0,1-.014-.066.541.541,0,0,1,.089-.381l.012-.02a3.8,3.8,0,0,1,1.454-1.51,1.673,1.673,0,0,1,.836-.239,1.539,1.539,0,0,1,1.3.788,2.5,2.5,0,0,1,.285.649,6.218,6.218,0,0,1,.241.892,6.507,6.507,0,0,1,2.777-.781c.064-.006.141-.009.217-.009a2.667,2.667,0,0,1,.534.054,3.566,3.566,0,0,0,1.1.041c.236-.017.461-.025.683-.025a9.406,9.406,0,0,1,2.41.314q.128.035.252.078a5.87,5.87,0,0,1,.477-.838,2.734,2.734,0,0,1,1.506-1.07,1.338,1.338,0,0,1,.408-.063,1.369,1.369,0,0,1,.584.132,2.113,2.113,0,0,1,.663.451,3.735,3.735,0,0,1,.877,1.472.328.328,0,0,1-.071.32l-.025.024a7.843,7.843,0,0,1,.247,1.632l.013.16a6.819,6.819,0,0,1,.035.687c0,.171,0,.342-.005.513a10.1,10.1,0,0,1-.181,2.247,1.039,1.039,0,0,0,.022.564c.088.286.151.573.2.818a9.424,9.424,0,0,0,.387,1.273.708.708,0,0,0,.105.185c.187.253.369.5.551.738l.258.344a5.48,5.48,0,0,1,.759,1.275,2.154,2.154,0,0,1,.15.531.328.328,0,0,1-.085.272l0,0c.058.124.114.25.168.377a9.679,9.679,0,0,1,.748,3.011,7.188,7.188,0,0,1-.479,3.145,12.151,12.151,0,0,1-.589,1.313.342.342,0,0,1-.035.053v0c-.038.073-.1.206-.11.216a2.511,2.511,0,0,1-.223.314.2.2,0,0,0-.017.029,4.639,4.639,0,0,1-1.732,1.542l-.031.018a.626.626,0,0,1-.328.106h-.034a.326.326,0,0,1-.27-.142l0,0a.309.309,0,0,1-.022-.038,10.97,10.97,0,0,1-1.079.577c-.064.031-.131.064-.2.1l-.093.047a.327.327,0,0,1-.06.023.764.764,0,0,0-.221.1.333.333,0,0,1-.135.051.25.25,0,0,0-.082.027l-.033.016c-.345.137-.712.267-1.092.388a4.968,4.968,0,0,1-.54.131c-.091.018-.182.036-.272.058a.207.207,0,0,0-.106.085.329.329,0,0,1-.068.078l-.206.174c-.151.128-.308.261-.47.388a5.876,5.876,0,0,1-2,1.075A3.9,3.9,0,0,1,1525.793,690.811Z" transform="translate(-1514.159 -663.735)" fill="#6a5747"/>
      <g id="Group_410" data-name="Group 410" transform="translate(0.225 0.328)">
        <path id="Path_42" data-name="Path 42" d="M1515.789,756.811c.016.034.014.077.053.1a.66.66,0,0,1-.123.274A.741.741,0,0,1,1515.789,756.811Z" transform="translate(-1515.687 -741.874)" fill="#aa8b63"/>
        <path id="Path_45" data-name="Path 45" d="M1519.219,751.395a.3.3,0,0,1,.023-.059c.014-.02.026-.06.058-.043s.016.051,0,.077-.019.02-.029.03Z" transform="translate(-1518.614 -737.257)" fill="#dac4a8"/>
        <path id="Path_47" data-name="Path 47" d="M1535.873,676.631l-.009,0,.012,0Z" transform="translate(-1532.53 -674.844)" fill="#6a5747"/>
        <path id="Path_74" data-name="Path 74" d="M1633.286,816.563l-.015-.009s0-.008,0-.012l.014.023Z" transform="translate(-1613.96 -791.809)" fill="#dac4a8"/>
        <path id="Path_76" data-name="Path 76" d="M1633.774,806.832l-.013.031c-.031-.031.007-.021.016-.027Z" transform="translate(-1614.361 -783.691)" fill="#6a5747"/>
        <path id="Path_77" data-name="Path 77" d="M1531.953,677.961c.506-.015,1.012-.03,1.518,0,.017.063.069.063.12.079a11.093,11.093,0,0,1,2.032.8,4.917,4.917,0,0,1,.934.643,6.505,6.505,0,0,1,1.437,1.945,15.328,15.328,0,0,1,.762,1.856c.319.9.589,1.825.9,2.731a18.6,18.6,0,0,0,1.106,2.654c.2.381.414.757.611,1.142a11.673,11.673,0,0,1,.844,2.039,4.889,4.889,0,0,1,.206,1.068,5.137,5.137,0,0,1-.079,1.354,5.014,5.014,0,0,1-1.2,2.355,9.358,9.358,0,0,1-2,1.663c-.715.455-1.457.866-2.177,1.313-.11.068-.25.1-.312.234a3.507,3.507,0,0,1-.7.24l-.014-.014c.075-.119.153-.236.224-.357a.418.418,0,0,0,.093-.222l.016-.006s0-.008,0-.012l-.017.02c-.1,0-.138.108-.227.129a.229.229,0,0,1,.074-.179,3.329,3.329,0,0,0,.678-1.17,6.606,6.606,0,0,0,.366-2.024,7.1,7.1,0,0,0-.083-1.285,9.2,9.2,0,0,0-.383-1.642c-.149-.459-.308-.915-.486-1.364a2.234,2.234,0,0,0-.3-.664c-.014-.089.038-.189-.046-.266.021-.29.242-.4.476-.508-.356-.185-.6-.063-.652.3-.027.19-.068.379-.1.568-.066,0-.083.058-.1.1-.067.149-.126.3-.193.45a4.053,4.053,0,0,1-.475.88c-.1.128-.206.252-.3.385a3.551,3.551,0,0,1-.526.574,1.483,1.483,0,0,1-1.076.34,1.761,1.761,0,0,1-1.071-.435.2.2,0,0,1-.09-.149,2.582,2.582,0,0,0,1.2-.84c.092-.105.231-.2.237-.364l.044-.051c.078-.009.085-.067.092-.128l0,0c.073-.013.081-.069.086-.128l0-.006c.074-.014.079-.073.084-.131l0,0a.606.606,0,0,0,.231-.451.271.271,0,0,1,.049-.129.767.767,0,0,0,.173-.5l.013-.082c.044-.023.077-.047.03-.1l.018-.126c.043-.023.072-.051.025-.1.006-.1.012-.192.019-.288a.861.861,0,0,0-.229-.794.479.479,0,0,1-.064-.091.251.251,0,0,0-.01-.066,4.053,4.053,0,0,0-1.34-1.771,1.817,1.817,0,0,0-.905-.348,1.609,1.609,0,0,0-1.05.364c-.158.109-.281.257-.438.373-.061-.15-.1-.177-.227-.153a.533.533,0,0,0-.3.216.119.119,0,0,0-.013.146c.027.043.077.037.122.034.074,0,.14-.054.217-.042h0c-.181.247-.36.495-.542.74a.406.406,0,0,1-.086.066,1.614,1.614,0,0,0,.029-.174.073.073,0,0,0-.064-.081h-.02a.647.647,0,0,0-.39.469c0,.078.043.11.116.079s.16-.077.24-.116l0,.089a.974.974,0,0,0-.308.984,5.338,5.338,0,0,0,.242,1.036,4.877,4.877,0,0,0,.42.944.489.489,0,0,0,.1.266,3.733,3.733,0,0,0,.538.7,1.893,1.893,0,0,0,1.383.6c0,.073-.065.1-.112.128a2.978,2.978,0,0,1-.581.281,3.354,3.354,0,0,1-1.389.256,1.28,1.28,0,0,1-.782-.289,4.726,4.726,0,0,1-.629-.69,5.731,5.731,0,0,1-.62-1.055c-.036-.071-.053-.158-.137-.2l-.007-.111c-.021-.366-.281-.509-.615-.334.043.069.124.075.184.114.13.085.254.193.247.349a2.711,2.711,0,0,0,.131.831c-.1-.019-.118.057-.148.127a6.294,6.294,0,0,0-.415,3.267,7.178,7.178,0,0,0,.319,1.427,7.508,7.508,0,0,0,.741,1.589l-.015.011.023.026,0,0c-.023.109.054.2.053.307a.291.291,0,0,1-.212-.05c-.468-.229-.953-.42-1.428-.632a5.74,5.74,0,0,1-.941-.461,8.632,8.632,0,0,1-1.38-1.124c-.257-.269-.537-.515-.772-.807-.088-.109-.169-.252-.337-.272h0a.078.078,0,0,0-.046-.091l0,0a.069.069,0,0,0-.054-.046c-.039,0-.026-.1-.091-.044-.1-.01-.123-.1-.16-.169a6.905,6.905,0,0,1-.6-1.459,6.722,6.722,0,0,1-.257-1.685c0-.208,0-.417,0-.625a5.76,5.76,0,0,1,.12-1.057,10.333,10.333,0,0,1,.4-1.412,2.7,2.7,0,0,0,.155-.669c.022-.007.026-.014.01-.018s-.006.011-.01.018h-.049c0-.059-.01-.107-.085-.058-.03.02-.061.036-.092.055-.006-.154.117-.238.2-.338a15.057,15.057,0,0,0,1.062-1.428,8.7,8.7,0,0,0,.984-2.265,9.132,9.132,0,0,1,.378-1.323,22.231,22.231,0,0,1,1.043-2.144,8.925,8.925,0,0,1,.973-1.355,6.374,6.374,0,0,1,.984-.905,5.753,5.753,0,0,1,2.919-1.113c.464-.05.932-.064,1.4-.094C1531.877,678.037,1531.94,678.044,1531.953,677.961Zm2.1,3.751a.057.057,0,0,0-.016.007s0,.008,0,.012l.019-.018.047-.042a.276.276,0,0,0,.166-.055c.238-.153.475-.308.719-.45a1.389,1.389,0,0,1,1.825.163,1.975,1.975,0,0,1,.6,1.2.05.05,0,0,1-.028.054,2.348,2.348,0,0,0-2.664-.694c.306.02.6.005.9.041a2.435,2.435,0,0,1,1.062.373,3.219,3.219,0,0,1,.822.838,1.232,1.232,0,0,0,.217.258,2.7,2.7,0,0,0-.086-.972,2.277,2.277,0,0,0-.887-1.45,1.637,1.637,0,0,0-1.273-.263,2.175,2.175,0,0,0-1.013.539,1.033,1.033,0,0,0-.361.415Zm.585,7.884.018-.023-.023.017-.016.023Zm4.875-.716.023.016-.017-.023-.043-.046a.212.212,0,0,0-.074-.134,1.067,1.067,0,0,0-.585-.3,3.987,3.987,0,0,0-1.482.012,6.606,6.606,0,0,0-1.319.4,5.971,5.971,0,0,0-1.188.609c-.041.028-.1.043-.081.117.065.028.112-.019.158-.049a6.889,6.889,0,0,1,1.491-.694,6.8,6.8,0,0,1,1.36-.32,2.658,2.658,0,0,1,1.205.1,4.746,4.746,0,0,1,.506.273Zm-.179,1.835.023.017-.017-.023a.1.1,0,0,0-.088-.047c-.015-.109-.1-.162-.178-.217a2.812,2.812,0,0,0-1.438-.487,5.963,5.963,0,0,0-1.268.03,8.177,8.177,0,0,0-1.484.379.478.478,0,0,0-.225.131c.04.044.073.026.107.014.183-.062.366-.127.549-.183a6.353,6.353,0,0,1,1.771-.287,4.584,4.584,0,0,1,.621.038,2.826,2.826,0,0,1,1.307.462.528.528,0,0,0,.231.13.1.1,0,0,0,.09.044Zm-15.621.717a.23.23,0,0,0,.134-.072,9.066,9.066,0,0,1,.9-.685,2.949,2.949,0,0,1,1.339-.448,4.46,4.46,0,0,1,1.61.152.256.256,0,0,0,.2-.005.783.783,0,0,0-.1-.054,3.425,3.425,0,0,0-.846-.183,2.291,2.291,0,0,0-.6-.046c-.2.04-.414.03-.617.08a3.7,3.7,0,0,0-.936.343,7.549,7.549,0,0,0-.9.655.413.413,0,0,0-.2.256l-.017.023Zm4.382-1.836.023.016-.017-.023a1.219,1.219,0,0,0-.343-.313,5.288,5.288,0,0,0-1.762-1.017,3.2,3.2,0,0,1,.945.126,1.506,1.506,0,0,0,.5.082.5.5,0,0,1,.256.071,1.546,1.546,0,0,1,.563.463c.069.1.143.189.227.3a.5.5,0,0,0-.095-.429,1.292,1.292,0,0,0-.318-.309c-.11-.078-.06-.129.03-.173a.481.481,0,0,0,.226-.086,1.22,1.22,0,0,0,.516-.678,3.8,3.8,0,0,0,.281-1.519c-.007-.126.011-.254,0-.379a1.437,1.437,0,0,0-.855-1.323c-.046-.019-.08-.037-.08-.091.044-.008.1.007.141-.033a1.234,1.234,0,0,0-.961-.078,2.563,2.563,0,0,0-1.421,1.194,2.672,2.672,0,0,0-.377.97,2.415,2.415,0,0,0,.032.619,2.278,2.278,0,0,0,.245.874c.041.076.127.125.141.23a.719.719,0,0,1-.246.027c-.048,0-.09.011-.089.073a2.162,2.162,0,0,0-1.293.478,1.521,1.521,0,0,0-.475.521l-.017.023.021-.017c.084,0,.131-.065.18-.119a2.689,2.689,0,0,1,.386-.335,1.826,1.826,0,0,1,.9-.4,2.206,2.206,0,0,1,1.356.343,12.53,12.53,0,0,1,1.182.826.282.282,0,0,0,.195.085Zm1.256-7.883.019.018-.018-.019c-.008-.028-.008-.064-.026-.083a3.262,3.262,0,0,0-.859-.738,1.7,1.7,0,0,0-1.186-.18,1.775,1.775,0,0,0-1.232.978,4.007,4.007,0,0,0-.368,1.525.29.29,0,0,0,.024.185,5.625,5.625,0,0,0,.379-.478,2.553,2.553,0,0,1,1.225-.892,2.993,2.993,0,0,1,.854-.135h.557a2.064,2.064,0,0,0-1.07-.172,2.557,2.557,0,0,0-1.491.783c-.04.044-.073.113-.168.109a2.126,2.126,0,0,1,.8-1.427,1.322,1.322,0,0,1,1.451-.123c.188.092.363.2.541.311a4.077,4.077,0,0,0,.573.338Zm5.82,6.76a2.1,2.1,0,0,0-.457.391.47.47,0,0,0-.139.458.621.621,0,0,0,.151-.181,1.678,1.678,0,0,1,.89-.643c.263-.073.539-.1.807-.147a3.5,3.5,0,0,1,.732-.058.812.812,0,0,0,.44-.124l-.355-.028c-.009-.082.058-.117.1-.16a1.481,1.481,0,0,0,.366-.6,2.529,2.529,0,0,0,.093-1.012c-.005-.092,0-.214-.112-.27a1.241,1.241,0,0,0-.109-.432,3.037,3.037,0,0,0-.633-.967,2.259,2.259,0,0,0-1.211-.676,1.375,1.375,0,0,0-.77.123.443.443,0,0,0,.193.04.36.36,0,0,1-.174.092.979.979,0,0,0-.38.265,2.013,2.013,0,0,0-.409,1.373c0,.114.03.234.03.352a2.6,2.6,0,0,0,.181.909,4.416,4.416,0,0,0,.76,1.3Zm-1.762-.712c-.065.011-.114.038-.095.13a.5.5,0,0,0,.367.343c.075,0,.1-.05.1-.117a.429.429,0,0,0-.373-.356Zm1.047.739a1.14,1.14,0,0,0-.208-.384.129.129,0,0,0-.144-.034.077.077,0,0,0-.048.091.753.753,0,0,0,.222.449.115.115,0,0,0,.126.021c.054-.021.047-.07.052-.144Zm-.311.662a.683.683,0,0,0-.26-.426.074.074,0,0,0-.1-.006.092.092,0,0,0-.036.1.9.9,0,0,0,.219.432c.039.035.078.077.136.046s.034-.076.041-.144Zm-4.983-1.312a.078.078,0,0,0-.059-.094.079.079,0,0,0-.058.009.715.715,0,0,0-.357.4c-.028.089.045.158.125.115a.743.743,0,0,0,.349-.434Zm-1.151,2.583.014-.01-.012-.012-.018.017Zm6.6-8.518c-.009-.015-.021-.016-.033,0,0,0,.01.011.016.012s.011-.006.017-.009Z" transform="translate(-1520.465 -675.942)" fill="#d0b084"/>
        <path id="Path_78" data-name="Path 78" d="M1553.643,767.3a7.5,7.5,0,0,1-.741-1.589,7.165,7.165,0,0,1-.319-1.427,6.294,6.294,0,0,1,.415-3.267c.031-.069.046-.146.148-.127.069.084.046.2.109.289a6.373,6.373,0,0,0,.563.747.273.273,0,0,0,.086.176,3.34,3.34,0,0,0,.582.519.657.657,0,0,1,.267.346c.084.222.164.447.239.673a8.567,8.567,0,0,0,.569,1.381,2.777,2.777,0,0,0,1.146,1.213,1.528,1.528,0,0,0,.99.186,2.015,2.015,0,0,0,1.129-.676,3.7,3.7,0,0,0,.6-.938,14.1,14.1,0,0,0,.8-2.268.491.491,0,0,1,.174-.277,3.211,3.211,0,0,0,.7-.711,3.689,3.689,0,0,0,.781-2.233,2.244,2.244,0,0,1,.3.664c.177.449.337.9.485,1.364a9.16,9.16,0,0,1,.383,1.641,7.1,7.1,0,0,1,.084,1.285,6.609,6.609,0,0,1-.366,2.024,3.333,3.333,0,0,1-.678,1.17.225.225,0,0,0-.074.179c-.237.178-.438.4-.661.592a.529.529,0,0,1-.175.136c-.069-.013-.108.034-.156.069a13.2,13.2,0,0,1-1.823,1.157,3.1,3.1,0,0,1-1.961.338.1.1,0,0,0-.1.035l-.089-.016c-.017-.048-.037-.086-.09-.032a2.09,2.09,0,0,1-.643-.3,12.4,12.4,0,0,1-2.332-1.886c-.124-.127-.229-.272-.343-.408l0,0A.133.133,0,0,1,1553.643,767.3Z" transform="translate(-1546.457 -743.967)" fill="#dac4a8"/>
        <path id="Path_80" data-name="Path 80" d="M1537.731,669.859a5.2,5.2,0,0,1,.654,1.625.317.317,0,0,1-.129.383,5.37,5.37,0,0,0-1.227,1.283,13.559,13.559,0,0,0-1.425,2.523c-.224.5-.435,1.012-.612,1.533-.007.021-.019.04-.063.044a10,10,0,0,1-.094-1.895c.03-.006.061-.016.066-.05.033-.235.078-.469.094-.705.035-.526.1-1.047.178-1.569a7.893,7.893,0,0,1,.595-2.139,2.479,2.479,0,0,1,.611-.871,1.171,1.171,0,0,1,.791-.311,3.673,3.673,0,0,1,.52.1h0A.059.059,0,0,0,1537.731,669.859Z" transform="translate(-1531.661 -669.06)" fill="#aa8b63"/>
        <path id="Path_81" data-name="Path 81" d="M1598.006,699.923c.063-.133.2-.166.312-.234.72-.447,1.462-.858,2.177-1.313a9.386,9.386,0,0,0,2-1.663,5.014,5.014,0,0,0,1.2-2.354,5.147,5.147,0,0,0,.079-1.354,4.921,4.921,0,0,0-.206-1.068,11.78,11.78,0,0,0-.843-2.039c-.2-.384-.408-.761-.611-1.141a18.609,18.609,0,0,1-1.106-2.654c-.316-.906-.585-1.827-.9-2.731a15.329,15.329,0,0,0-.762-1.856,6.511,6.511,0,0,0-1.437-1.945,4.923,4.923,0,0,0-.934-.643,11.09,11.09,0,0,0-2.033-.8c-.051-.016-.1-.017-.12-.079a2.124,2.124,0,0,1,.6.041,5.749,5.749,0,0,1,1.279.29,5.238,5.238,0,0,1,1.671.972,5.778,5.778,0,0,1,1.252,1.639,11.241,11.241,0,0,1,.669,1.583c.462,1.289.839,2.609,1.281,3.9a6.592,6.592,0,0,0,.6,1.2,18.634,18.634,0,0,1,1.281,2.5,8.887,8.887,0,0,1,.567,2.151,7.211,7.211,0,0,1,.078.954,6.712,6.712,0,0,1-.455,2.329.946.946,0,0,1-.188.274c-.281.329-.512.695-.776,1.036a6.932,6.932,0,0,1-1.037,1.042,10.1,10.1,0,0,1-1.928,1.246,13.707,13.707,0,0,1-1.638.711A.276.276,0,0,1,1598.006,699.923Z" transform="translate(-1581.819 -676.026)" fill="#aa8b63"/>
        <path id="Path_82" data-name="Path 82" d="M1613.972,670.238a.788.788,0,0,0,.025.455,3.892,3.892,0,0,1,.112.926c.028.332.042.668.067,1,.028.38.019.758.034,1.137a6.246,6.246,0,0,1-.128,1.24l-.186-.492a10.817,10.817,0,0,0-1.442-2.71,5.322,5.322,0,0,0-1.578-1.361c-.083-.049-.168-.1-.251-.146-.151-.09-.15-.092-.042-.266a.483.483,0,0,0,.158-.154,5.176,5.176,0,0,1,.732-.806,2.209,2.209,0,0,1,.788-.489.828.828,0,0,1,1,.315,2.383,2.383,0,0,1,.366.659c.077.193.149.387.223.582C1613.875,670.186,1613.895,670.244,1613.972,670.238Z" transform="translate(-1594.931 -668.058)" fill="#aa8b63"/>
        <path id="Path_86" data-name="Path 86" d="M1529.9,677.262c-.012.083-.075.076-.136.08-.466.029-.934.045-1.4.094a5.751,5.751,0,0,0-2.919,1.113,6.394,6.394,0,0,0-.984.9,8.914,8.914,0,0,0-.974,1.355,22.148,22.148,0,0,0-1.043,2.144,9.13,9.13,0,0,0-.378,1.323,8.7,8.7,0,0,1-.984,2.265,15.123,15.123,0,0,1-1.062,1.428c-.079.1-.2.184-.2.338l0,0c-.04,0-.074.016-.079.064l-.764,1.182a5.711,5.711,0,0,1,.275-.988,1.379,1.379,0,0,1,.284-.624c.25-.316.5-.628.753-.944a9.106,9.106,0,0,0,.8-1.213c.062.023.017.086.056.114.008-.007.021-.013.024-.023.26-.65.486-1.313.716-1.975a18.022,18.022,0,0,1,1.639-3.569,8.042,8.042,0,0,1,1.237-1.609,5.8,5.8,0,0,1,2.885-1.479,9.745,9.745,0,0,1,.975-.123A3.193,3.193,0,0,1,1529.9,677.262Z" transform="translate(-1518.416 -675.242)" fill="#dac4a8"/>
        <path id="Path_87" data-name="Path 87" d="M1520.213,745.41h.05a2.7,2.7,0,0,1-.155.669,10.277,10.277,0,0,0-.4,1.412,5.754,5.754,0,0,0-.12,1.056c0,.208,0,.417,0,.625a6.729,6.729,0,0,0,.257,1.685,6.893,6.893,0,0,0,.6,1.459c.037.07.057.16.159.169a5.357,5.357,0,0,0,.239.874c-.064.023-.083-.014-.1-.042a8.442,8.442,0,0,1-1.4-2.925,5.447,5.447,0,0,1-.091-1.686,8.781,8.781,0,0,1,.422-2.049A5.221,5.221,0,0,1,1520.213,745.41Z" transform="translate(-1518.623 -732.343)" fill="#dac4a8"/>
        <path id="Path_88" data-name="Path 88" d="M1528.781,789.663c.168.021.249.163.337.272.234.292.515.538.772.807a8.66,8.66,0,0,0,1.38,1.124,5.719,5.719,0,0,0,.941.461c.475.212.961.4,1.428.632a.289.289,0,0,0,.212.05l0,0a.061.061,0,0,0,.042.05,3.4,3.4,0,0,1,.282.433l-.02.021c-.907-.376-1.841-.687-2.717-1.133a5.853,5.853,0,0,1-1.575-1.123,5.465,5.465,0,0,1-.795-1.074A1.774,1.774,0,0,1,1528.781,789.663Z" transform="translate(-1526.608 -769.338)" fill="#dac4a8"/>
        <path id="Path_89" data-name="Path 89" d="M1537.69,668.731a3.642,3.642,0,0,0-.521-.1,1.171,1.171,0,0,0-.791.311,2.48,2.48,0,0,0-.61.871,7.891,7.891,0,0,0-.595,2.139c-.077.521-.143,1.043-.179,1.569-.016.236-.061.47-.094.705,0,.034-.035.044-.065.05a10.745,10.745,0,0,1,.11-2.09,10.2,10.2,0,0,1,.419-1.913,4.005,4.005,0,0,1,.641-1.244,1.538,1.538,0,0,1,.87-.587.846.846,0,0,1,.664.111C1537.6,668.595,1537.682,668.635,1537.69,668.731Z" transform="translate(-1531.66 -667.976)" fill="#dac4a8"/>
        <path id="Path_93" data-name="Path 93" d="M1614.367,669.379c-.078.007-.1-.051-.118-.108-.073-.194-.146-.389-.223-.582a2.385,2.385,0,0,0-.366-.659.826.826,0,0,0-1-.315,2.2,2.2,0,0,0-.788.489,5.194,5.194,0,0,0-.732.806.485.485,0,0,1-.158.154.37.37,0,0,1,.068-.209,3.279,3.279,0,0,1,1.448-1.354.992.992,0,0,1,1.206.224,2.294,2.294,0,0,1,.329.45A2.789,2.789,0,0,1,1614.367,669.379Z" transform="translate(-1595.326 -667.199)" fill="#dac4a8"/>
        <path id="Path_97" data-name="Path 97" d="M1580.686,816.124a.1.1,0,0,1,.1-.034,3.093,3.093,0,0,0,1.961-.339,13.2,13.2,0,0,0,1.824-1.157c.049-.034.088-.081.156-.069a1.207,1.207,0,0,1-.366.354,5.527,5.527,0,0,1-2.478,1.312,2.631,2.631,0,0,1-1.147-.027C1580.718,816.16,1580.7,816.137,1580.686,816.124Z" transform="translate(-1570.001 -790.121)" fill="#d0b084"/>
        <path id="Path_100" data-name="Path 100" d="M1631.7,674.607a.128.128,0,0,1,.1.122C1631.709,674.729,1631.733,674.663,1631.7,674.607Z" transform="translate(-1612.649 -673.152)" fill="#d0b084"/>
        <path id="Path_103" data-name="Path 103" d="M1579.6,823.86c.053-.054.073-.016.089.032a.064.064,0,0,1-.087-.026Z" transform="translate(-1569.092 -797.905)" fill="#d0b084"/>
        <path id="Path_104" data-name="Path 104" d="M1523.657,745.465c.005-.048.039-.06.079-.063C1523.723,745.44,1523.69,745.453,1523.657,745.465Z" transform="translate(-1522.324 -732.336)" fill="#d0b084"/>
        <path id="Path_105" data-name="Path 105" d="M1528.485,789.106a.079.079,0,0,1,.046.092C1528.482,789.183,1528.474,789.15,1528.485,789.106Z" transform="translate(-1526.357 -768.872)" fill="#dac4a8"/>
        <path id="Path_113" data-name="Path 113" d="M1529.17,794.336l-.012.014c0-.005-.01-.01-.01-.015s.007-.009.012-.013Z" transform="translate(-1526.915 -773.233)" fill="#dac4a8"/>
        <path id="Path_115" data-name="Path 115" d="M1528.193,788.834a.069.069,0,0,1,.054.046C1528.213,788.883,1528.2,788.859,1528.193,788.834Z" transform="translate(-1526.117 -768.645)" fill="#dac4a8"/>
        <path id="Path_117" data-name="Path 117" d="M1532,802.513c-.043.013-.055-.019-.069-.049C1531.967,802.464,1531.994,802.474,1532,802.513Z" transform="translate(-1529.242 -780.04)" fill="#00a4e0"/>
        <path id="Path_118" data-name="Path 118" d="M1561.548,813.038c.013.012.033.024.007.041,0,0-.018-.013-.027-.02Z" transform="translate(-1553.985 -788.879)" fill="#dac4a8"/>
        <path id="Path_119" data-name="Path 119" d="M1609.781,812.84l-.031.016.017-.03Z" transform="translate(-1594.298 -788.702)" fill="#d0b084"/>
        <path id="Path_120" data-name="Path 120" d="M1559.717,810.14a.06.06,0,0,1-.042-.05A.055.055,0,0,1,1559.717,810.14Z" transform="translate(-1552.436 -786.415)" fill="#d0b084"/>
        <path id="Path_122" data-name="Path 122" d="M1552.325,670.379a.059.059,0,0,1-.043-.046C1552.311,670.335,1552.321,670.354,1552.325,670.379Z" transform="translate(-1546.255 -669.579)" fill="#dac4a8"/>
        <path id="Path_159" data-name="Path 159" d="M1571.359,740.446c-.005.042-.012.084-.017.126a.074.074,0,0,0-.031.1l-.013.082a1.548,1.548,0,0,0-.173.5.264.264,0,0,0-.049.128,1.243,1.243,0,0,0-.23.451l0,0a.124.124,0,0,0-.083.131l-.006.006a.122.122,0,0,0-.085.128l0,.005a.129.129,0,0,0-.091.128l-.044.05c-.082.03-.124.105-.18.163a3.128,3.128,0,0,1-.616.513,1.712,1.712,0,0,1-1.879.049,2.8,2.8,0,0,1-.753-.657,2.138,2.138,0,0,0-.3-.383,4.887,4.887,0,0,1-.419-.944,5.371,5.371,0,0,1-.242-1.036.973.973,0,0,1,.308-.984,2.275,2.275,0,0,0,.485-.382,5.57,5.57,0,0,1,1.1-.753,1.782,1.782,0,0,1,1.468-.034,2.974,2.974,0,0,1,.909.63c.243.229.469.473.7.711a.461.461,0,0,0,.064.091.863.863,0,0,1,.229.794c-.008.1-.013.192-.02.288A.074.074,0,0,0,1571.359,740.446Zm-1.919,1.617a.192.192,0,0,0,.162-.033,2.2,2.2,0,0,0,.911-.924,1.059,1.059,0,0,0,.155-.439.381.381,0,0,0-.132-.379.345.345,0,0,0-.4.03,1.417,1.417,0,0,0-.4.412,2.343,2.343,0,0,0-.456,1.232c.023-.024.035-.033.039-.046a.9.9,0,0,0,.034-.106,3.027,3.027,0,0,1,.493-1.069,1.1,1.1,0,0,1,.394-.357c.2-.1.34-.006.335.217a.61.61,0,0,1-.025.131,1.659,1.659,0,0,1-.408.709,4.079,4.079,0,0,1-.7.622Zm-1.406-.023c-.069-.054-.14-.107-.206-.163a2.915,2.915,0,0,1-.759-.87,1.128,1.128,0,0,1-.13-.4.217.217,0,0,1,.337-.222,1.043,1.043,0,0,1,.2.142,2.409,2.409,0,0,1,.57.924c.063.175.114.354.171.531a.775.775,0,0,0,0-.249,2.606,2.606,0,0,0-.523-1.124.935.935,0,0,0-.453-.351.268.268,0,0,0-.356.132.273.273,0,0,0-.024.115.876.876,0,0,0,.037.375,1.845,1.845,0,0,0,.284.5,1.6,1.6,0,0,0,.851.656Z" transform="translate(-1557.824 -725.891)" fill="#6a5747"/>
        <path id="Path_160" data-name="Path 160" d="M1554.13,757.546a6.368,6.368,0,0,1-.563-.747c-.064-.086-.041-.2-.109-.289a2.7,2.7,0,0,1-.131-.831c.007-.156-.117-.264-.247-.349-.06-.039-.141-.046-.184-.114.335-.175.594-.032.615.335,0,.037,0,.074.006.112a1.731,1.731,0,0,0,.084.391,2.839,2.839,0,0,0,1.4,1.85,1.945,1.945,0,0,0,1.82.146c.256-.1.51-.209.765-.315a.275.275,0,0,1,.285.039,1.855,1.855,0,0,0,1.785.219,3.041,3.041,0,0,0,1.016-.68,4.126,4.126,0,0,0,1.193-2.279c.036-.19.078-.378.1-.568.052-.366.3-.488.652-.3-.233.107-.454.219-.476.508-.053.066-.027.143-.031.216a2.322,2.322,0,0,1-.016.312,4.465,4.465,0,0,1-1.588,2.6.489.489,0,0,0-.175.246,9.981,9.981,0,0,1-.363,1.126,10.252,10.252,0,0,1-.946,1.847,2.115,2.115,0,0,1-.57.592,1.133,1.133,0,0,1-1.061.162,1.846,1.846,0,0,1-.584-.364,4.527,4.527,0,0,1-.943-1.293,15.818,15.818,0,0,1-.625-1.505.919.919,0,0,0-.441-.556A4.047,4.047,0,0,1,1554.13,757.546Z" transform="translate(-1546.767 -739.589)" fill="#6a5747"/>
        <path id="Path_161" data-name="Path 161" d="M1603.209,719.034l.354.028a.811.811,0,0,1-.44.124,3.48,3.48,0,0,0-.732.058c-.269.049-.544.074-.807.147a1.673,1.673,0,0,0-.89.643.625.625,0,0,1-.151.181.473.473,0,0,1,.139-.458,2.114,2.114,0,0,1,.458-.391.376.376,0,0,0,.194-.112,2.581,2.581,0,0,1-.879-1.288,3.773,3.773,0,0,1-.1-.681,2.571,2.571,0,0,1,.224-1.452,1.2,1.2,0,0,1,.963-.67c-.025.095-.122.1-.186.137a1.518,1.518,0,0,0-.623.59,2.414,2.414,0,0,0-.215.875c.067-.089.111-.147.154-.206a1.828,1.828,0,0,1,.65-.568,1.21,1.21,0,0,1,1.646.467l0,0a1.976,1.976,0,0,1,.26,1.18,2.623,2.623,0,0,1-.35,1.028.877.877,0,0,0-.133.309,1.458,1.458,0,0,0,.588-.731,2.9,2.9,0,0,0,.172-1.141,1.256,1.256,0,0,0-.118-.519,2.788,2.788,0,0,0-.978-1.139,1.341,1.341,0,0,0-.869-.288.654.654,0,0,0-.412-.089c-.057-.012-.12.007-.193-.04a1.374,1.374,0,0,1,.77-.123,2.256,2.256,0,0,1,1.21.676,3.027,3.027,0,0,1,.633.967,1.23,1.23,0,0,1,.108.432,7.5,7.5,0,0,1-.049.753,2.045,2.045,0,0,1-.559,1.183.1.1,0,0,0-.048.108A.351.351,0,0,0,1603.209,719.034Zm-1.242-1.6a.53.53,0,0,0,.515.5.556.556,0,0,0,.539-.569.515.515,0,0,0-.475-.552h-.017a.565.565,0,0,0-.564.566c0,.018,0,.036,0,.053Z" transform="translate(-1586.427 -706.836)" fill="#6a5747"/>
        <path id="Path_162" data-name="Path 162" d="M1549.2,719.966c-.091.043-.141.095-.031.172a1.293,1.293,0,0,1,.318.309.505.505,0,0,1,.095.429c-.084-.11-.16-.2-.227-.3a1.542,1.542,0,0,0-.563-.463.5.5,0,0,0-.255-.071,1.5,1.5,0,0,1-.5-.082,3.185,3.185,0,0,0-.945-.126l-.341-.07c0-.062.041-.069.089-.073a.723.723,0,0,0,.246-.027c-.014-.105-.1-.155-.141-.23a2.291,2.291,0,0,1-.245-.874,2.394,2.394,0,0,1-.032-.619,2.668,2.668,0,0,1,.376-.969,2.56,2.56,0,0,1,1.421-1.194,1.234,1.234,0,0,1,.962.078c-.046.04-.1.024-.141.033a.817.817,0,0,0-.452.091.919.919,0,0,0-.435.064,2.709,2.709,0,0,0-1.435,1.435.75.75,0,0,0-.054.193,2.6,2.6,0,0,0,.32,1.745c.023.064.044.131.129.14a.137.137,0,0,0,.009.042c.009.014.021.008.018-.011s-.018-.021-.028-.031a.31.31,0,0,0-.077-.18,1.9,1.9,0,0,1,.076-1.66,1.369,1.369,0,0,1,2.351-.206c.044.056.086.113.143.187a1.561,1.561,0,0,0-.792-1.559c-.08-.043-.18-.064-.226-.158a.316.316,0,0,1,.131.012,1.327,1.327,0,0,1,.989,1.046,3.284,3.284,0,0,1,.056,1.281,2.48,2.48,0,0,1-.712,1.525A.272.272,0,0,0,1549.2,719.966Zm-.46-1.724a.56.56,0,0,0,.523.595h.008a.508.508,0,0,0,.515-.5c0-.008,0-.016,0-.024a.554.554,0,0,0-.51-.594h-.021a.509.509,0,0,0-.515.5C1548.74,718.225,1548.741,718.233,1548.741,718.242Z" transform="translate(-1541.553 -707.518)" fill="#6a5747"/>
        <path id="Path_163" data-name="Path 163" d="M1560.421,760.575a4.043,4.043,0,0,0,.676.507.918.918,0,0,1,.441.556,15.9,15.9,0,0,0,.625,1.505,4.534,4.534,0,0,0,.943,1.293,1.841,1.841,0,0,0,.583.364,1.132,1.132,0,0,0,1.061-.162,2.113,2.113,0,0,0,.57-.592,10.244,10.244,0,0,0,.946-1.847,9.993,9.993,0,0,0,.363-1.126.489.489,0,0,1,.175-.246,4.467,4.467,0,0,0,1.588-2.6,2.428,2.428,0,0,0,.016-.312c0-.073-.021-.15.031-.216.084.077.032.177.046.266a3.689,3.689,0,0,1-.781,2.233,3.213,3.213,0,0,1-.7.711.49.49,0,0,0-.174.277,14.126,14.126,0,0,1-.8,2.268,3.693,3.693,0,0,1-.6.938,2.014,2.014,0,0,1-1.128.676,1.529,1.529,0,0,1-.991-.186,2.772,2.772,0,0,1-1.146-1.213,8.613,8.613,0,0,1-.569-1.381q-.112-.339-.239-.673a.655.655,0,0,0-.266-.346,3.345,3.345,0,0,1-.582-.519A.272.272,0,0,1,1560.421,760.575Z" transform="translate(-1553.059 -742.617)" fill="#aa8b63"/>
        <path id="Path_164" data-name="Path 164" d="M1565.035,759.915a4.127,4.127,0,0,1-1.192,2.279,3.042,3.042,0,0,1-1.016.68,1.857,1.857,0,0,1-1.785-.219.274.274,0,0,0-.284-.04c-.255.105-.509.212-.765.315a1.946,1.946,0,0,1-1.82-.146,2.841,2.841,0,0,1-1.4-1.85,1.734,1.734,0,0,1-.084-.392c.084.039.1.125.137.2a5.752,5.752,0,0,0,.62,1.055,4.723,4.723,0,0,0,.63.691,1.278,1.278,0,0,0,.781.288,3.352,3.352,0,0,0,1.389-.256,3.007,3.007,0,0,0,.582-.281c.047-.032.111-.054.112-.128.092.008.17-.062.264-.044a.2.2,0,0,0,.09.148,1.76,1.76,0,0,0,1.071.435,1.479,1.479,0,0,0,1.075-.34,3.519,3.519,0,0,0,.526-.574c.1-.132.2-.256.3-.384a4.034,4.034,0,0,0,.475-.88c.067-.149.127-.3.193-.45C1564.952,759.972,1564.969,759.917,1565.035,759.915Z" transform="translate(-1549.936 -744.469)" fill="#dac4a8"/>
        <path id="Path_165" data-name="Path 165" d="M1572.775,735.6c-.234-.238-.46-.483-.7-.712a2.969,2.969,0,0,0-.909-.63,1.78,1.78,0,0,0-1.467.034,5.568,5.568,0,0,0-1.1.753,2.294,2.294,0,0,1-.485.383c0-.03,0-.059,0-.089v0a.1.1,0,0,0,.046-.092v0a.091.091,0,0,0,.046-.092v0a.4.4,0,0,0,.086-.066c.183-.246.362-.493.542-.74l.015-.008s0-.008,0-.012l-.019.018c-.078-.012-.143.038-.217.042-.044,0-.1.009-.122-.034a.12.12,0,0,1,.013-.146.535.535,0,0,1,.3-.216c.125-.024.166,0,.227.153.156-.116.28-.265.438-.373a1.61,1.61,0,0,1,1.05-.365,1.817,1.817,0,0,1,.9.348,4.05,4.05,0,0,1,1.34,1.771A.258.258,0,0,1,1572.775,735.6Z" transform="translate(-1559.489 -722.312)" fill="#aa8b63"/>
        <path id="Path_166" data-name="Path 166" d="M1551.025,695.617a4.122,4.122,0,0,1-.572-.337c-.178-.108-.354-.219-.541-.311a1.322,1.322,0,0,0-1.452.123,2.124,2.124,0,0,0-.795,1.427c.1,0,.128-.065.168-.109a2.558,2.558,0,0,1,1.492-.784,2.066,2.066,0,0,1,1.07.171h-.557a3,3,0,0,0-.854.135,2.553,2.553,0,0,0-1.226.892,5.583,5.583,0,0,1-.378.478.285.285,0,0,1-.023-.185,4.009,4.009,0,0,1,.368-1.525,1.774,1.774,0,0,1,1.232-.978,1.7,1.7,0,0,1,1.186.18,3.279,3.279,0,0,1,.859.738c.018.019.018.055.026.083Z" transform="translate(-1542.133 -689.846)" fill="#aa8b63"/>
        <path id="Path_167" data-name="Path 167" d="M1598.674,695.589a1.033,1.033,0,0,1,.362-.415,2.176,2.176,0,0,1,1.012-.539,1.636,1.636,0,0,1,1.273.263,2.275,2.275,0,0,1,.887,1.451,2.712,2.712,0,0,1,.087.972,1.241,1.241,0,0,1-.218-.258,3.216,3.216,0,0,0-.822-.838,2.431,2.431,0,0,0-1.062-.373c-.3-.036-.593-.021-.9-.041a2.347,2.347,0,0,1,2.664.694.05.05,0,0,0,.028-.054,1.978,1.978,0,0,0-.6-1.2,1.388,1.388,0,0,0-1.825-.163c-.244.142-.48.3-.719.45a.273.273,0,0,1-.166.054Z" transform="translate(-1585.038 -689.867)" fill="#aa8b63"/>
        <path id="Path_168" data-name="Path 168" d="M1559.913,716.85a.817.817,0,0,1,.452-.091c0,.054.033.072.079.09a1.439,1.439,0,0,1,.856,1.323c.015.125,0,.253,0,.379a3.8,3.8,0,0,1-.281,1.52,1.221,1.221,0,0,1-.516.678.481.481,0,0,1-.226.086.272.272,0,0,1,.095-.122,2.478,2.478,0,0,0,.712-1.524,3.288,3.288,0,0,0-.056-1.281,1.328,1.328,0,0,0-.989-1.046.313.313,0,0,0-.132-.012Z" transform="translate(-1552.634 -708.388)" fill="#aa8b63"/>
        <path id="Path_169" data-name="Path 169" d="M1572.553,765.275c-.093-.018-.172.052-.264.044a1.892,1.892,0,0,1-1.383-.6,3.714,3.714,0,0,1-.538-.7.484.484,0,0,1-.1-.266,2.185,2.185,0,0,1,.3.384,2.8,2.8,0,0,0,.754.657,1.712,1.712,0,0,0,1.879-.049,3.138,3.138,0,0,0,.616-.513c.057-.057.1-.132.18-.163-.005.168-.144.259-.236.365A2.582,2.582,0,0,1,1572.553,765.275Z" transform="translate(-1561.29 -747.68)" fill="#aa8b63"/>
        <path id="Path_170" data-name="Path 170" d="M1600.7,716.036a1.2,1.2,0,0,0-.963.67,2.574,2.574,0,0,0-.224,1.452,3.77,3.77,0,0,0,.1.681,2.581,2.581,0,0,0,.879,1.289.373.373,0,0,1-.194.112,4.418,4.418,0,0,1-.759-1.3,2.618,2.618,0,0,1-.181-.909c0-.119-.03-.239-.029-.352a2.011,2.011,0,0,1,.409-1.373.981.981,0,0,1,.38-.265.358.358,0,0,0,.174-.092.653.653,0,0,1,.412.089Z" transform="translate(-1585.585 -707.709)" fill="#aa8b63"/>
        <path id="Path_171" data-name="Path 171" d="M1607.352,741.757a4.753,4.753,0,0,0-.506-.272,2.66,2.66,0,0,0-1.205-.1,6.816,6.816,0,0,0-1.36.32,6.893,6.893,0,0,0-1.491.694c-.046.03-.091.077-.158.049-.019-.074.04-.089.081-.117a5.978,5.978,0,0,1,1.188-.609,6.6,6.6,0,0,1,1.319-.4,3.985,3.985,0,0,1,1.483-.012,1.066,1.066,0,0,1,.585.3.212.212,0,0,1,.073.133Z" transform="translate(-1588.344 -728.863)" fill="#dac4a8"/>
        <path id="Path_172" data-name="Path 172" d="M1538.2,740.417l.341.07a5.281,5.281,0,0,1,1.762,1.017,1.224,1.224,0,0,1,.343.313l-.006.006a.286.286,0,0,1-.2-.086,12.524,12.524,0,0,0-1.182-.826,2.2,2.2,0,0,0-1.356-.343,1.824,1.824,0,0,0-.9.4,2.7,2.7,0,0,0-.385.335c-.049.054-.1.117-.18.119l0,0a1.522,1.522,0,0,1,.475-.521A2.158,2.158,0,0,1,1538.2,740.417Z" transform="translate(-1533 -728.169)" fill="#dac4a8"/>
        <path id="Path_173" data-name="Path 173" d="M1606.7,751.8a.532.532,0,0,1-.23-.13,2.825,2.825,0,0,0-1.307-.462,4.667,4.667,0,0,0-.621-.037,6.352,6.352,0,0,0-1.771.287c-.184.057-.366.122-.549.183-.035.012-.069.029-.108-.014a.481.481,0,0,1,.226-.131,8.153,8.153,0,0,1,1.484-.379,5.947,5.947,0,0,1,1.269-.03,2.81,2.81,0,0,1,1.438.487c.079.055.163.108.178.216Z" transform="translate(-1587.914 -737.074)" fill="#dac4a8"/>
        <path id="Path_174" data-name="Path 174" d="M1535.329,753.322a.416.416,0,0,1,.2-.256,7.587,7.587,0,0,1,.9-.654,3.664,3.664,0,0,1,.937-.343c.2-.05.412-.04.616-.08a2.3,2.3,0,0,1,.6.046,3.4,3.4,0,0,1,.845.183.752.752,0,0,1,.1.054.256.256,0,0,1-.2.005,4.465,4.465,0,0,0-1.611-.152,2.947,2.947,0,0,0-1.339.448,8.983,8.983,0,0,0-.9.685.233.233,0,0,1-.134.072Z" transform="translate(-1532.083 -737.839)" fill="#dac4a8"/>
        <path id="Path_175" data-name="Path 175" d="M1616.806,729.68a.349.349,0,0,1-.2,0,.1.1,0,0,1,.048-.108,2.045,2.045,0,0,0,.559-1.182c.051-.252.023-.5.05-.753.116.057.107.179.113.27a2.549,2.549,0,0,1-.093,1.013,1.489,1.489,0,0,1-.366.6C1616.865,729.564,1616.8,729.6,1616.806,729.68Z" transform="translate(-1600.024 -717.482)" fill="#aa8b63"/>
        <path id="Path_176" data-name="Path 176" d="M1566.3,742.928c-.08.039-.158.081-.241.116s-.112,0-.117-.079a.647.647,0,0,1,.391-.469.073.073,0,0,1,.084.06.069.069,0,0,1,0,.02,1.546,1.546,0,0,1-.029.174h0a.091.091,0,0,0-.046.091h0a.089.089,0,0,0-.046.091Z" transform="translate(-1557.672 -729.906)" fill="#aa8b63"/>
        <path id="Path_177" data-name="Path 177" d="M1593.989,737.8a.429.429,0,0,1,.374.357c0,.066-.027.119-.1.117a.5.5,0,0,1-.366-.343C1593.876,737.835,1593.924,737.808,1593.989,737.8Z" transform="translate(-1581.04 -725.978)" fill="#aa8b63"/>
        <path id="Path_178" data-name="Path 178" d="M1598.828,740.119c0,.073,0,.122-.052.142a.115.115,0,0,1-.126-.021.752.752,0,0,1-.222-.449.077.077,0,0,1,.049-.092.128.128,0,0,1,.143.034A1.137,1.137,0,0,1,1598.828,740.119Z" transform="translate(-1584.831 -727.561)" fill="#aa8b63"/>
        <path id="Path_179" data-name="Path 179" d="M1596.947,744.048c-.007.068.008.119-.041.145s-.1-.012-.136-.047a.894.894,0,0,1-.219-.431.091.091,0,0,1,.036-.1.073.073,0,0,1,.1.006A.682.682,0,0,1,1596.947,744.048Z" transform="translate(-1583.26 -730.829)" fill="#aa8b63"/>
        <path id="Path_180" data-name="Path 180" d="M1566.151,737.861a.743.743,0,0,1-.35.435c-.078.042-.152-.026-.125-.115a.716.716,0,0,1,.358-.4.078.078,0,0,1,.107.026A.077.077,0,0,1,1566.151,737.861Z" transform="translate(-1557.448 -725.953)" fill="#aa8b63"/>
        <path id="Path_181" data-name="Path 181" d="M1594.925,760.622a1.253,1.253,0,0,1,.23-.451A.606.606,0,0,1,1594.925,760.622Z" transform="translate(-1581.904 -744.683)" fill="#aa8b63"/>
        <path id="Path_182" data-name="Path 182" d="M1596.627,756.844a1.55,1.55,0,0,1,.173-.5A.767.767,0,0,1,1596.627,756.844Z" transform="translate(-1583.327 -741.484)" fill="#aa8b63"/>
        <path id="Path_183" data-name="Path 183" d="M1594.392,763.074a.125.125,0,0,1,.083-.131C1594.472,763,1594.466,763.06,1594.392,763.074Z" transform="translate(-1581.458 -747)" fill="#aa8b63"/>
        <path id="Path_184" data-name="Path 184" d="M1593.841,763.907a.122.122,0,0,1,.085-.128C1593.922,763.837,1593.915,763.894,1593.841,763.907Z" transform="translate(-1580.998 -747.699)" fill="#aa8b63"/>
        <path id="Path_185" data-name="Path 185" d="M1593.264,764.717a.13.13,0,0,1,.09-.128C1593.35,764.649,1593.343,764.708,1593.264,764.717Z" transform="translate(-1580.516 -748.376)" fill="#aa8b63"/>
        <path id="Path_186" data-name="Path 186" d="M1598.008,753.982a.073.073,0,0,1,.024-.1C1598.081,753.931,1598.051,753.958,1598.008,753.982Z" transform="translate(-1584.474 -739.427)" fill="#aa8b63"/>
        <path id="Path_187" data-name="Path 187" d="M1597.722,755.347a.074.074,0,0,1,.03-.1C1597.8,755.3,1597.768,755.326,1597.722,755.347Z" transform="translate(-1584.236 -740.569)" fill="#aa8b63"/>
        <path id="Path_188" data-name="Path 188" d="M1561.5,753.974l-.015-.006.018-.017.011.013Z" transform="translate(-1553.952 -739.483)" fill="#dac4a8"/>
        <path id="Path_189" data-name="Path 189" d="M1601.628,702.089c-.006,0-.012.009-.018.009s-.01-.008-.015-.012C1601.608,702.073,1601.619,702.074,1601.628,702.089Z" transform="translate(-1587.48 -696.116)" fill="#aa8b63"/>
        <path id="Path_190" data-name="Path 190" d="M1630.163,755.541a.1.1,0,0,1-.089-.044l.007-.009a.1.1,0,0,1,.088.048Z" transform="translate(-1611.288 -740.768)" fill="#dac4a8"/>
        <path id="Path_191" data-name="Path 191" d="M1631.437,744.3l.043.046-.007.007-.046-.044Z" transform="translate(-1612.421 -731.414)" fill="#dac4a8"/>
        <path id="Path_192" data-name="Path 192" d="M1631.717,744.58l.016.023-.023-.016Z" transform="translate(-1612.657 -731.649)" fill="#dac4a8"/>
        <path id="Path_193" data-name="Path 193" d="M1525.526,745.333c0-.006.009-.018.01-.018S1525.547,745.326,1525.526,745.333Z" transform="translate(-1523.887 -732.263)" fill="#dac4a8"/>
        <path id="Path_194" data-name="Path 194" d="M1536.349,746.5l-.021.017.017-.023Z" transform="translate(-1532.917 -733.246)" fill="#dac4a8"/>
        <path id="Path_195" data-name="Path 195" d="M1601.95,748.858l.023-.017-.018.023Z" transform="translate(-1587.777 -735.211)" fill="#dac4a8"/>
        <path id="Path_196" data-name="Path 196" d="M1630.621,755.777l.016.023-.023-.017Z" transform="translate(-1611.741 -741.01)" fill="#dac4a8"/>
        <path id="Path_197" data-name="Path 197" d="M1562.1,748.951l.016.023-.023-.016Z" transform="translate(-1554.455 -735.303)" fill="#dac4a8"/>
        <path id="Path_198" data-name="Path 198" d="M1601.868,748.956l-.023.017.017-.023Z" transform="translate(-1587.689 -735.302)" fill="#dac4a8"/>
        <path id="Path_199" data-name="Path 199" d="M1535.256,760.147l-.023.016.016-.023Z" transform="translate(-1532.002 -744.657)" fill="#dac4a8"/>
        <path id="Path_200" data-name="Path 200" d="M1598.327,700.915l-.019.019s0-.009,0-.012l.015-.008Z" transform="translate(-1584.733 -695.145)" fill="#aa8b63"/>
        <path id="Path_201" data-name="Path 201" d="M1569.752,700.913l.018.019-.019-.018Z" transform="translate(-1560.859 -695.144)" fill="#aa8b63"/>
        <path id="Path_202" data-name="Path 202" d="M1598.468,700.645l-.047.041h0l.042-.046Z" transform="translate(-1584.827 -694.915)" fill="#aa8b63"/>
        <path id="Path_203" data-name="Path 203" d="M1611.789,809.21l.018-.02s0,.01,0,.012l-.017.005Z" transform="translate(-1596 -785.663)" fill="#6a5747"/>
        <path id="Path_204" data-name="Path 204" d="M1559.27,807.991a.132.132,0,0,0,.007.038l-.023-.026Z" transform="translate(-1552.083 -784.66)" fill="#6a5747"/>
        <path id="Path_209" data-name="Path 209" d="M1585.531,755.041a4.071,4.071,0,0,0,.7-.621,1.659,1.659,0,0,0,.408-.709.594.594,0,0,0,.025-.131c.005-.223-.133-.312-.335-.217a1.1,1.1,0,0,0-.394.357,3.021,3.021,0,0,0-.493,1.069,1,1,0,0,1-.033.106c0,.012-.018.022-.04.046a2.343,2.343,0,0,1,.456-1.232,1.43,1.43,0,0,1,.4-.412.345.345,0,0,1,.4-.03.378.378,0,0,1,.131.379,1.044,1.044,0,0,1-.155.439,2.194,2.194,0,0,1-.911.924A.19.19,0,0,1,1585.531,755.041Z" transform="translate(-1573.916 -738.869)" fill="#aa8b63"/>
        <path id="Path_210" data-name="Path 210" d="M1571.759,754.994a1.6,1.6,0,0,1-.853-.656,1.845,1.845,0,0,1-.284-.5.872.872,0,0,1-.037-.375.268.268,0,0,1,.38-.247.936.936,0,0,1,.453.351,2.6,2.6,0,0,1,.523,1.124.761.761,0,0,1,0,.249c-.057-.177-.108-.357-.171-.532a2.4,2.4,0,0,0-.57-.924,1.051,1.051,0,0,0-.2-.143.217.217,0,0,0-.337.222,1.129,1.129,0,0,0,.13.4,2.923,2.923,0,0,0,.759.87C1571.619,754.887,1571.689,754.94,1571.759,754.994Z" transform="translate(-1561.55 -738.845)" fill="#aa8b63"/>
        <path id="Path_211" data-name="Path 211" d="M1602.49,716.51a1.34,1.34,0,0,1,.869.288,2.792,2.792,0,0,1,.978,1.139,1.266,1.266,0,0,1,.118.519,2.908,2.908,0,0,1-.173,1.141,1.46,1.46,0,0,1-.588.731.878.878,0,0,1,.133-.309,2.616,2.616,0,0,0,.35-1.028,1.977,1.977,0,0,0-.26-1.18,1.21,1.21,0,0,0-1.644-.473l0,0a1.829,1.829,0,0,0-.65.568l-.154.206a2.407,2.407,0,0,1,.215-.876,1.519,1.519,0,0,1,.623-.59c.064-.042.16-.044.185-.137Z" transform="translate(-1587.372 -708.182)" fill="#fff"/>
        <path id="Path_212" data-name="Path 212" d="M1610.273,727.182a.565.565,0,0,1,.509-.615l.052,0a.515.515,0,0,1,.494.536c0,.006,0,.011,0,.017a.556.556,0,0,1-.539.569A.53.53,0,0,1,1610.273,727.182Z" transform="translate(-1594.733 -716.588)" fill="#fff"/>
        <path id="Path_213" data-name="Path 213" d="M1549.919,717.306c.046.094.147.116.227.158a1.562,1.562,0,0,1,.792,1.56c-.057-.074-.1-.131-.144-.187a1.37,1.37,0,0,0-2.351.206,1.9,1.9,0,0,0-.076,1.66.064.064,0,0,1-.051.04A2.6,2.6,0,0,1,1548,719a.742.742,0,0,1,.054-.193,2.711,2.711,0,0,1,1.436-1.435.918.918,0,0,1,.435-.064Z" transform="translate(-1542.641 -708.845)" fill="#fff"/>
        <path id="Path_214" data-name="Path 214" d="M1559.357,728.441a.508.508,0,0,1,.491-.525h.023a.554.554,0,0,1,.532.575c0,.007,0,.013,0,.02a.508.508,0,0,1-.489.526h-.025a.56.56,0,0,1-.532-.586Z" transform="translate(-1552.169 -717.718)" fill="#fff"/>
        <path id="Path_215" data-name="Path 215" d="M1550.132,738.081a.063.063,0,0,0,.051-.04.306.306,0,0,1,.077.18h0C1550.176,738.212,1550.156,738.145,1550.132,738.081Z" transform="translate(-1544.458 -726.182)" fill="#aa8b63"/>
        <path id="Path_216" data-name="Path 216" d="M1550.913,739.137c.01.01.026.019.028.031s-.009.025-.018.01a.139.139,0,0,1-.009-.042Z" transform="translate(-1545.11 -727.098)" fill="#aa8b63"/>
        <path id="Path_217" data-name="Path 217" d="M1568.106,744.682a.088.088,0,0,1,.046-.092A.1.1,0,0,1,1568.106,744.682Z" transform="translate(-1559.483 -731.658)" fill="#d0b084"/>
        <path id="Path_218" data-name="Path 218" d="M1568.381,744.136a.091.091,0,0,1,.046-.092A.091.091,0,0,1,1568.381,744.136Z" transform="translate(-1559.713 -731.201)" fill="#d0b084"/>
        <path id="Path_219" data-name="Path 219" d="M1572.483,739.041l.019-.018s0,.009,0,.012l-.015.008Z" transform="translate(-1563.143 -727.003)" fill="#d0b084"/>
        <path id="Path_220" data-name="Path 220" d="M1576.436,779.245l.9-.556,1.177.415s-.18,1.22-.892,1.357S1576.409,780,1576.436,779.245Z" transform="translate(-1566.447 -760.164)" fill="#fff"/>
        <path id="Path_276" data-name="Path 276" d="M1516.161,679.977a.289.289,0,0,0-.023.059c-.15.3-.379.86-.529,1.159-.039-.022-.164-.492.026-.524a6.22,6.22,0,0,1,1.658-3.355,4.11,4.11,0,0,0,.7-.919,1.81,1.81,0,0,0,.137-.28c.139-.4.286-.8.4-1.208a.582.582,0,0,0,.015-.286,12.317,12.317,0,0,1-.19-3.139.5.5,0,0,0,0-.2,2.063,2.063,0,0,1-.07-.951,9.241,9.241,0,0,1,.495-2.4c.063-.126-.1-.051-.062-.188l.164-.328a.66.66,0,0,1,.049-.1,3.475,3.475,0,0,1,1.332-1.386,1.178,1.178,0,0,1,1.7.44,2.173,2.173,0,0,1,.25.572,5.857,5.857,0,0,1,.3,1.279c.1.018.149-.046.209-.081a6.158,6.158,0,0,1,2.841-.858,2.327,2.327,0,0,1,.668.039,3.9,3.9,0,0,0,1.2.046,9.074,9.074,0,0,1,2.971.28,3.986,3.986,0,0,1,.382.126c.1.038.144.021.186-.08a5.563,5.563,0,0,1,.517-.938,2.4,2.4,0,0,1,1.323-.939,1.034,1.034,0,0,1,.764.049,1.824,1.824,0,0,1,.572.386,3.389,3.389,0,0,1,.8,1.339c-.111-.025-.11-.157-.212-.166-.034.053,0,.1.012.148a7.521,7.521,0,0,1,.336,1.911c.021.274.052.551.047.827a12.839,12.839,0,0,1-.178,2.691,1.367,1.367,0,0,0,.03.74c.078.256.137.519.191.781a9.755,9.755,0,0,0,.4,1.325,1.06,1.06,0,0,0,.155.271c.266.36.536.717.8,1.076a5.183,5.183,0,0,1,.719,1.207,1.828,1.828,0,0,1,.127.451l-.052,0a1.186,1.186,0,0,0-.389-.556c-.017-.01-.041-.032-.05-.027-.035.019-.013.046,0,.069.2.417.414.824.592,1.25a9.369,9.369,0,0,1,.724,2.912,6.8,6.8,0,0,1-.458,3,11.628,11.628,0,0,1-.575,1.281c-.024.006-.028.026-.031.046-.027.041-.059.08-.044.134l0,0c-.033,0-.043.021-.046.049l0,0a1.739,1.739,0,0,0-.253.361,4.3,4.3,0,0,1-1.609,1.433c-.077.04-.148.1-.246.084l0,0c.021-.077.09-.115.141-.166.255-.248.492-.512.725-.779a.7.7,0,0,0,.14-.2l.039-.049.037-.053c.017-.008.037-.021.02-.037s-.029,0-.036.021a.058.058,0,0,0-.049.041l-.048.042c-.227.179-.451.362-.683.535a10.536,10.536,0,0,1-1.8,1.064c-.1.048-.2.1-.3.149a1.118,1.118,0,0,0-.315.143.57.57,0,0,0-.19.062c-.353.139-.709.265-1.071.381-.262.084-.534.121-.8.186a.536.536,0,0,0-.295.227c-.222.185-.44.377-.667.555a5.6,5.6,0,0,1-1.894,1.02,3.556,3.556,0,0,1-1.522.088,5.725,5.725,0,0,1-.667-.178.97.97,0,0,0-.262-.163,4.03,4.03,0,0,0-.53-.33,5.612,5.612,0,0,1-1.052-.624,6.091,6.091,0,0,0-1.007-.574.392.392,0,0,0-.209-.069.837.837,0,0,0-.326-.156l-1.446-.6c-.083-.034-.165-.069-.245-.108a2.892,2.892,0,0,0-.818-.278,2.67,2.67,0,0,1-1.266-.631.928.928,0,0,0-.265-.2l0,0c-.007-.04-.035-.049-.069-.049a.934.934,0,0,0-.322-.42c0,.069-.1-.108-.246-.267-.116-.137-.061-.08-.174-.161l-.093-.135-.115-.195a9.973,9.973,0,0,1-1.288-2.5,5.831,5.831,0,0,1-.261-2.339,8.955,8.955,0,0,1,.47-2.105.141.141,0,0,0,.029-.03Zm1.5,5.994,0,0c-.011.043,0,.077.046.092h0a1.777,1.777,0,0,0,.284.524,5.492,5.492,0,0,0,.794,1.074,5.864,5.864,0,0,0,1.575,1.123c.877.446,1.811.755,2.717,1.133.009.007.023.023.027.02.026-.017.006-.029-.007-.041a3.374,3.374,0,0,0-.283-.434.057.057,0,0,0-.041-.05l0,0c0-.105-.077-.2-.053-.307.115.137.22.281.344.408a12.41,12.41,0,0,0,2.331,1.886,2.085,2.085,0,0,0,.644.3.063.063,0,0,0,.083.035l.006,0,.089.016c.017.013.032.035.051.04a2.641,2.641,0,0,0,1.147.028,5.529,5.529,0,0,0,2.477-1.312,1.207,1.207,0,0,0,.366-.353.54.54,0,0,0,.175-.136c.222-.2.423-.414.66-.593.089-.02.126-.13.227-.129l0,0a.422.422,0,0,1-.093.222c-.07.121-.148.238-.224.357l-.017.03.032-.016a3.52,3.52,0,0,0,.7-.24.265.265,0,0,0,.067-.005,13.819,13.819,0,0,0,1.638-.711,10.107,10.107,0,0,0,1.928-1.246,6.93,6.93,0,0,0,1.037-1.042c.265-.341.5-.707.776-1.036a.948.948,0,0,0,.188-.275,6.713,6.713,0,0,0,.455-2.329,7.25,7.25,0,0,0-.078-.954,8.889,8.889,0,0,0-.567-2.151,18.529,18.529,0,0,0-1.281-2.5,6.564,6.564,0,0,1-.595-1.2c-.442-1.3-.818-2.615-1.281-3.9a11.258,11.258,0,0,0-.669-1.582,5.769,5.769,0,0,0-1.253-1.639,5.231,5.231,0,0,0-1.67-.972,5.738,5.738,0,0,0-1.279-.29,2.1,2.1,0,0,0-.6-.041c-.505-.034-1.012-.02-1.518,0a3.194,3.194,0,0,0-1.28-.14,9.813,9.813,0,0,0-.974.123,5.8,5.8,0,0,0-2.885,1.479,8.041,8.041,0,0,0-1.237,1.609,17.988,17.988,0,0,0-1.639,3.57c-.23.661-.455,1.324-.716,1.975,0,.009-.016.015-.024.023-.038-.028.006-.09-.055-.114a9.247,9.247,0,0,1-.8,1.213c-.249.316-.5.628-.753.944a1.39,1.39,0,0,0-.284.624,5.751,5.751,0,0,0-.276.987l.764-1.18c.034-.012.067-.025.079-.064v0c.031-.018.061-.035.091-.054.075-.049.084,0,.085.058a5.217,5.217,0,0,0-.532,1.249,8.8,8.8,0,0,0-.423,2.049,5.448,5.448,0,0,0,.092,1.686,8.436,8.436,0,0,0,1.4,2.925c.019.028.037.065.1.042a5.339,5.339,0,0,1-.239-.874c.065-.061.111.091.145.089Zm3.9-19.482h0c-.008-.1-.084-.136-.152-.179a.844.844,0,0,0-.664-.111,1.539,1.539,0,0,0-.87.587,4.016,4.016,0,0,0-.641,1.244,10.217,10.217,0,0,0-.419,1.913,10.766,10.766,0,0,0-.11,2.09,10.046,10.046,0,0,0,.093,1.894c.045,0,.056-.023.063-.044.178-.522.388-1.03.611-1.533a13.563,13.563,0,0,1,1.424-2.523,5.363,5.363,0,0,1,1.227-1.283.317.317,0,0,0,.13-.384,5.193,5.193,0,0,0-.654-1.625c0-.025-.013-.044-.042-.047Zm9.627,1.211c-.108.176-.109.176.042.266.083.05.168.1.252.146a5.327,5.327,0,0,1,1.578,1.361,10.807,10.807,0,0,1,1.441,2.71l.186.492a6.264,6.264,0,0,0,.128-1.24c-.015-.379-.006-.757-.034-1.137-.025-.332-.039-.669-.068-1a3.869,3.869,0,0,0-.112-.926.791.791,0,0,1-.026-.455,2.79,2.79,0,0,0-.336-1.1,2.292,2.292,0,0,0-.329-.45.992.992,0,0,0-1.206-.225,3.277,3.277,0,0,0-1.447,1.354.365.365,0,0,0-.069.209Zm-13.4,19.139-.011-.014s-.011.009-.012.013.007.01.011.015Z" transform="translate(-1515.533 -665.735)" fill="#6a5747"/>
      </g>
    </g>
  </g>
</svg>
