<svg xmlns="http://www.w3.org/2000/svg" width="34" height="34" viewBox="0 0 34 34">
  <g id="Group_590" data-name="Group 590" transform="translate(-1256 -1106.273)">
    <g id="Path_933" data-name="Path 933" transform="translate(1256 1106.273)" fill="#0067b4">
      <path d="M 17 32.5 C 12.85980033874512 32.5 8.967410087585449 30.88772010803223 6.039850234985352 27.96014976501465 C 3.112279891967773 25.03259086608887 1.5 21.14019966125488 1.5 17 C 1.5 12.85980033874512 3.112279891967773 8.967410087585449 6.039850234985352 6.039850234985352 C 8.967410087585449 3.112279891967773 12.85980033874512 1.5 17 1.5 C 21.14019966125488 1.5 25.03259086608887 3.112279891967773 27.96014976501465 6.039850234985352 C 30.88772010803223 8.967410087585449 32.5 12.85980033874512 32.5 17 C 32.5 21.14019966125488 30.88772010803223 25.03259086608887 27.96014976501465 27.96014976501465 C 25.03259086608887 30.88772010803223 21.14019966125488 32.5 17 32.5 Z" stroke="none"/>
      <path d="M 17 3 C 13.26045989990234 3 9.744760513305664 4.456249237060547 7.100509643554688 7.100509643554688 C 4.456249237060547 9.744760513305664 3 13.26045989990234 3 17 C 3 20.73954010009766 4.456249237060547 24.25524139404297 7.100509643554688 26.89949035644531 C 9.744760513305664 29.54375076293945 13.26045989990234 31 17 31 C 20.73954010009766 31 24.25524139404297 29.54375076293945 26.89949035644531 26.89949035644531 C 29.54375076293945 24.25524139404297 31 20.73954010009766 31 17 C 31 13.26045989990234 29.54375076293945 9.744760513305664 26.89949035644531 7.100509643554688 C 24.25524139404297 4.456249237060547 20.73954010009766 3 17 3 M 17 0 C 26.38883972167969 0 34 7.611160278320312 34 17 C 34 26.38883972167969 26.38883972167969 34 17 34 C 7.611160278320312 34 0 26.38883972167969 0 17 C 0 7.611160278320312 7.611160278320312 0 17 0 Z" stroke="none" fill="#fff"/>
    </g>
    <path id="Icon_awesome-check" data-name="Icon awesome-check" d="M5.975,17.438.258,11.721a.88.88,0,0,1,0-1.244L1.5,9.233a.88.88,0,0,1,1.244,0L6.6,13.084l8.249-8.249a.88.88,0,0,1,1.244,0l1.244,1.244a.88.88,0,0,1,0,1.244L7.219,17.438A.88.88,0,0,1,5.975,17.438Z" transform="translate(1264.168 1112.536)" fill="#fff"/>
  </g>
</svg>
